<svg width="139" height="80" viewBox="0 0 139 80" fill="none" xmlns="http://www.w3.org/2000/svg">
<path fill-rule="evenodd" clip-rule="evenodd" d="M0 39.7879H8.29997V42.8062H5.73404V47.8606H15.0893V42.8062H12.4488V39.7879H20.8986V42.8062H18.1829V57.669H20.8986V60.6113H12.4488V57.669H15.0893V50.8029H5.73404V57.669H8.29997V60.6113H0V57.669H2.6412V42.8062H0V39.7879ZM99.286 39.7879H116.338V45.598H113.471V42.8062H105.171V47.7861H112.262V50.7276H105.171V57.669H113.395V53.6706H116.412V60.6113H99.286V57.669H102.078V42.8062H99.286V39.7879ZM24.7464 39.7879H41.8725V45.598H38.9302V42.8062H30.631V47.7861H37.7229V50.7276H30.631V57.669H38.855V53.6706H41.8725V60.6113H24.7464V57.669H27.5382V42.8062H24.7464V39.7879ZM104.266 36.9969H110.377L111.886 38.8072H105.926L104.266 36.9969ZM133.086 48.6908C130.973 48.1617 129.54 48.2384 127.352 47.5595C125.465 46.8806 125.089 45.7478 125.089 44.9936C125.089 44.1633 125.918 42.1266 128.936 42.1266C131.955 42.1266 133.991 44.1634 134.067 45.8983H137.009V39.7879H134.142V41.1473L134.293 41.5236C134.216 41.5236 134.142 41.2971 133.839 41.0713V40.996C133.011 40.241 131.275 39.3355 128.71 39.3355C125.617 39.3355 121.996 41.2971 121.996 44.9936C121.996 48.6155 124.56 49.8221 126.824 50.4258C129.012 51.0294 130.144 51.0294 132.029 51.5571C133.839 52.0095 135.047 53.1408 135.047 54.8012C135.047 56.3104 134.067 58.3472 130.144 58.3472C126.295 58.3472 124.711 56.2344 124.258 53.2921H121.466V60.6098H124.333V59.2519L124.258 58.8741C124.258 58.8741 124.333 59.1006 124.711 59.3265V59.4032C126.143 60.5345 128.105 61.2887 130.519 61.2887C133.311 61.2887 138.065 59.8563 138.065 54.8765C138.066 51.2567 136.179 49.5963 133.086 48.6908ZM92.5719 57.669V42.8062H95.3629V39.7879H87.8186L82.7635 52.0102L82.689 52.6146L82.5377 52.0102L77.5579 39.7879H69.9383V42.8062H72.7293V57.669H69.9383V60.6113H78.4626V57.669H75.8222V43.1073L76.0502 43.7877L81.8588 57.669H83.5192L89.3278 43.7877L89.4791 43.032L89.5543 43.8623V57.669H86.9132V60.6113H95.3629V57.669H92.5719ZM31.763 31.7913H28.896V31.037H31.0088C31.0841 31.1876 31.5365 31.5647 31.763 31.7913ZM103.813 31.7913C103.813 31.4894 104.115 31.1876 104.492 31.037H106.002V31.7913H103.813ZM56.4334 32.3189C55.1508 32.9226 53.5664 32.8473 52.2838 32.3189H37.2705C36.5534 32.6178 35.7841 32.7716 35.0072 32.7716C34.2302 32.7716 33.461 32.6178 32.7438 32.3189H28.896V33.752H106.002V32.3189H56.4334ZM38.176 31.7913C38.4026 31.64 38.9302 31.1123 39.0055 31.037H50.6241C50.7747 31.2636 51.1525 31.6407 51.3783 31.7913H38.176ZM54.3966 31.3381C56.3582 31.3381 58.0179 29.6784 58.0179 27.7169C58.0179 25.6801 56.3582 24.0197 54.3966 24.0197C53.4167 24.0214 52.4774 24.4115 51.7845 25.1046C51.0916 25.7976 50.7017 26.737 50.7001 27.7169C50.7001 29.6784 52.3598 31.3381 54.3966 31.3381V32.0923C51.9067 32.0923 49.9452 30.1308 49.9452 27.7169C49.9452 25.227 51.9067 23.2655 54.3966 23.2655C56.8105 23.2655 58.7721 25.227 58.7721 27.7169C58.7713 28.8771 58.3101 29.9896 57.4897 30.8099C56.6693 31.6303 55.5568 32.0916 54.3966 32.0923V31.3381ZM39.9863 27.114C39.9863 24.3975 37.7229 22.1342 35.0072 22.1342C32.2154 22.1342 30.0273 24.3975 30.0273 27.114C30.0273 29.9057 32.2154 32.0931 35.0072 32.0931C37.7229 32.0931 39.9863 29.905 39.9863 27.114H39.156C39.156 29.4526 37.2698 31.3389 35.0064 31.3389C34.4514 31.3398 33.9016 31.2311 33.3886 31.0191C32.8756 30.807 32.4095 30.4959 32.017 30.1034C31.6245 29.7109 31.3134 29.2448 31.1014 28.7318C30.8893 28.2188 30.7807 27.6691 30.7815 27.114C30.7815 24.7754 32.6678 22.9644 35.0064 22.9644C35.5518 22.9628 36.0921 23.0691 36.5963 23.2771C37.1004 23.4851 37.5585 23.7907 37.9441 24.1763C38.3298 24.5619 38.6354 25.02 38.8433 25.5242C39.0513 26.0283 39.1576 26.5686 39.156 27.114H39.9863Z" fill="black"/>
<path fill-rule="evenodd" clip-rule="evenodd" d="M56.7353 30.2069L55.2269 28.4711V28.3959C55.3029 28.3206 55.3029 28.2446 55.3774 28.1693L57.6408 28.773C57.7161 28.773 57.8673 28.8482 57.8673 28.9235C57.8673 28.8482 57.9434 28.5464 58.0179 28.3959C57.9426 28.4711 57.7913 28.4711 57.6408 28.4711L55.5287 27.8682C55.4527 27.8682 55.4527 27.7922 55.4527 27.7922V27.4144L57.6408 26.5841C57.6408 26.5841 57.8673 26.5841 57.8673 26.6594C57.8673 26.5841 57.7161 26.207 57.7161 26.1318C57.7161 26.207 57.5648 26.3583 57.4895 26.3583L57.6408 26.2823L55.3774 27.1125C55.3774 27.1878 55.3774 27.1125 55.3022 27.1125C55.2996 27.0733 55.2828 27.0363 55.255 27.0084C55.2271 26.9806 55.1901 26.9638 55.1509 26.9612C55.1509 26.8852 55.0756 26.81 55.1509 26.81L56.3582 24.9237C56.4342 24.8484 56.5847 24.7724 56.66 24.7724C56.584 24.7724 56.2829 24.5459 56.1316 24.4706C56.2076 24.4706 56.2076 24.6971 56.1316 24.7724L54.9243 26.6587H54.7738C54.7738 26.6587 54.6225 26.5834 54.5472 26.5834C54.5472 26.5834 54.4712 26.5834 54.4712 26.5074L54.3959 24.32C54.3959 24.1688 54.3959 24.0182 54.5472 24.0182H53.9435C54.0196 24.0182 54.0948 24.2448 54.0948 24.32L54.1708 26.5074C54.1708 26.5834 54.0948 26.5834 54.0948 26.5834C54.0948 26.5834 53.9435 26.6587 53.8683 26.7347C53.8683 26.7347 53.793 26.7347 53.793 26.6587L52.3599 24.9237C52.2838 24.8484 52.2838 24.6972 52.2838 24.6219C52.2086 24.6979 51.9067 24.9237 51.8315 24.999C51.9067 24.999 52.058 25.075 52.1333 25.1503L53.5664 26.8852V26.9612C53.4904 26.9612 53.4152 27.1125 53.4152 27.1878C53.4152 27.1878 53.3399 27.2631 53.2639 27.2631L51.1518 26.6594C51.0005 26.5841 50.9252 26.5081 50.9252 26.4329C50.9252 26.5081 50.774 26.8852 50.774 26.9612C50.774 26.9612 51.0005 26.8852 51.0758 26.9612L53.1879 27.4896C53.2639 27.4896 53.2639 27.5649 53.2639 27.5649V27.942L51.1518 28.8475C51.0758 28.8475 50.9252 28.9228 50.9252 28.8475C50.9252 28.9228 51.0005 29.2246 51.0758 29.3759C51.0758 29.2999 51.2271 29.1493 51.3023 29.1493L53.3399 28.2438C53.4152 28.2438 53.4152 28.3199 53.4152 28.3199C53.4904 28.3199 53.5664 28.3951 53.5664 28.4704C53.6417 28.4704 53.6417 28.5464 53.6417 28.5464L52.3591 30.4327C52.2831 30.5087 52.2078 30.5832 52.1326 30.5832C52.2078 30.6592 52.5097 30.885 52.5849 30.885C52.5089 30.885 52.5849 30.6585 52.5849 30.5832L53.8675 28.773C53.8675 28.697 53.9428 28.697 53.9428 28.697C54.0188 28.773 54.0941 28.773 54.1694 28.773C54.2446 28.773 54.2446 28.773 54.2446 28.8482L54.3959 31.1116C54.3959 31.1876 54.3199 31.3382 54.2446 31.3382H54.8483C54.697 31.3382 54.697 31.1876 54.697 31.0363L54.5465 28.8482C54.5465 28.773 54.6217 28.773 54.6217 28.773C54.697 28.773 54.8483 28.697 54.9236 28.6217C54.9236 28.6217 54.9996 28.6217 54.9996 28.697L56.508 30.3574C56.508 30.4327 56.5833 30.5832 56.5833 30.6592L56.9604 30.2821C56.8858 30.3581 56.7353 30.2069 56.7353 30.2069ZM34.8559 24.2463C36.968 24.2463 39.0808 24.4728 40.2881 24.8499C40.4387 24.8499 40.4387 25.0005 40.2881 25.0765C39.0055 25.3783 36.8927 25.6041 34.9312 25.6041C32.9696 25.6801 30.8568 25.6041 29.499 25.3023C29.3484 25.3023 29.3484 25.151 29.499 25.151C30.707 24.6994 32.7438 24.3223 34.8559 24.2463V23.8691C32.5925 23.9452 30.3292 24.4728 28.4429 25.1517C28.2164 25.227 28.2164 25.3783 28.4429 25.3783C30.5557 25.9067 32.7438 25.982 34.9312 25.9067C37.044 25.8307 39.3074 25.6801 41.3442 25.0765C41.646 25.0005 41.5707 24.8499 41.4194 24.8499C39.2918 24.2014 37.0801 23.8714 34.8559 23.8691V24.2463Z" fill="black"/>
<path fill-rule="evenodd" clip-rule="evenodd" d="M57.2637 22.8884C56.7353 23.0397 55.8298 23.3408 55.3774 23.3408C55.0003 23.3408 53.1148 23.2655 51.8315 23.3408C50.0957 23.416 49.9452 23.6426 49.8699 23.492C49.4928 22.8884 49.191 21.9829 48.5873 21.4545C45.0414 22.0582 41.5707 21.5305 38.4026 20.3985V19.9454C38.6291 20.0214 38.7797 20.0214 38.9302 20.0214C38.4026 19.2672 37.4971 19.0399 36.9687 18.2104C36.6669 17.9838 36.5916 17.5314 36.2898 17.3049C36.365 18.1351 35.6861 18.7388 35.6108 19.417C36.0632 19.5682 36.6669 19.5682 36.8934 19.493C37.1953 19.417 37.5724 19.493 37.7237 19.7195C37.9502 19.7948 38.1008 19.9454 38.4026 19.9454V20.3985C38.0247 20.3225 37.9502 20.2479 37.6484 20.0974C37.2713 20.2487 36.9694 20.1726 36.8182 20.0221C36.7421 19.9461 35.9879 19.9461 35.6861 19.9461C34.7053 19.9461 33.6493 20.3232 33.1209 21.1534C32.8944 21.6058 32.9696 22.1342 33.1962 22.5113C33.3475 22.7378 34.0264 23.7186 34.4788 24.0197L33.8751 24.171C32.9696 23.3408 32.2907 22.5866 32.442 21.6058C32.8951 19.4937 34.8559 19.7948 35.3843 18.8901C35.7614 18.0598 35.9119 15.6459 35.4596 14.967C34.177 14.4386 32.5933 13.7597 32.2907 12.2505C32.2154 11.8734 32.3667 11.4203 32.7438 11.345C33.422 11.1945 33.8751 11.5716 34.4035 11.7981C34.6301 11.6469 34.177 11.1192 34.7053 11.1192C35.3843 11.1192 35.8367 12.4771 36.0632 12.5531L35.9879 13.0807C35.5356 12.9302 33.8751 12.0247 33.7246 11.9494C33.4228 11.7981 33.0456 11.5716 32.8191 11.8734C32.5173 12.2505 32.8951 12.7036 33.1209 13.0807C36.6669 16.7772 42.5515 12.8542 46.3992 15.4946C46.4745 15.2681 46.3992 15.1928 46.248 15.1175C43.6075 12.6284 39.3826 13.911 35.9879 13.0807L36.0632 12.5531C40.2881 13.6091 45.8716 11.8742 48.0589 16.7027C49.4921 18.7402 51.0012 21.9836 54.0941 22.0596C56.584 22.1349 58.2437 21.1541 59.451 19.3432C61.1107 16.3256 62.0915 12.8549 65.0338 10.8181C65.3356 10.6668 65.4861 10.8181 65.3356 10.8934C63.9025 12.3265 62.6191 14.2135 61.9402 15.798C63.0715 20.0981 65.5614 19.1926 66.1651 19.1173C66.0138 17.5329 66.1651 12.8557 69.5605 11.7236C70.5461 10.9645 71.7188 10.4865 72.9543 10.3403C74.1897 10.1941 75.4416 10.3853 76.5771 10.8934C73.9367 13.3833 72.3522 16.9293 71.8239 19.4184L68.8816 20.2487C69.1081 19.7955 69.1081 19.0413 69.0328 18.2119C68.731 18.3624 68.4292 18.589 67.7502 18.9661C67.4484 19.0413 67.6742 18.589 67.6742 18.589C67.6742 18.4384 68.4284 18.1366 69.0321 17.7595C68.8055 16.0238 68.655 13.7604 70.0881 12.3273C67.1466 13.308 67.9761 19.4944 68.2779 20.2494C67.4477 20.6265 66.3164 20.6265 66.3164 20.6265L66.1651 19.5697C64.8825 20.0228 62.6944 19.721 61.7136 16.3256C60.6583 18.5129 59.7528 21.9829 57.2637 22.8884ZM103.286 13.6844C103.135 13.5331 103.058 13.4578 102.908 13.4578C102.831 13.3826 102.908 13.3066 102.983 13.3066C103.059 13.2313 103.21 13.3066 103.286 13.4578C103.361 13.5331 103.361 13.6844 103.286 13.6844Z" fill="black"/>
<path fill-rule="evenodd" clip-rule="evenodd" d="M35.7614 28.2453L37.345 30.0563C37.4963 30.2076 37.4963 30.4334 37.4211 30.5094C37.6476 30.4334 37.9494 30.0563 38.1 29.9057C38.024 29.981 37.7229 29.981 37.6476 29.8297L35.9879 28.0187V27.8682L36.0632 27.7922C36.0632 27.7169 36.1385 27.7169 36.1385 27.7169L38.4771 28.5471C38.7037 28.6977 38.7789 28.849 38.7789 28.9242C38.8549 28.7737 39.0055 28.3213 39.0808 28.17C39.0047 28.246 38.7789 28.3213 38.6284 28.246L36.2897 27.4158C36.2145 27.4158 36.2145 27.4158 36.2145 27.3405V27.1893C36.2145 27.114 36.2897 27.114 36.2897 27.114L38.7037 26.7369C39.0055 26.6609 39.156 26.8122 39.156 26.8874C39.156 26.7369 39.0808 26.2085 39.0808 26.0572C39.0808 26.1332 38.9295 26.359 38.6284 26.4343L36.2897 26.8114C36.2145 26.8114 36.2145 26.7361 36.2145 26.7361C36.1385 26.6601 36.1385 26.5849 36.0632 26.5096V26.4343L37.9494 24.8506C38.176 24.6993 38.4018 24.6993 38.4771 24.7746C38.3266 24.6233 38.0247 24.2462 37.8742 24.0957C37.9502 24.171 37.8742 24.3975 37.7229 24.6233L35.9119 26.1325C35.8359 26.2078 35.8359 26.2078 35.8359 26.1325C35.7606 26.1325 35.6854 26.1325 35.6101 26.0565C35.6101 26.0565 35.5348 25.9812 35.6101 25.9812L36.4403 23.6426C36.4684 23.5619 36.5187 23.4908 36.5854 23.4374C36.6521 23.384 36.7325 23.3505 36.8174 23.3407C36.6661 23.2655 36.1385 23.0389 35.9872 23.0389C36.0625 23.0389 36.2137 23.3407 36.1377 23.5666L35.3075 25.8299C35.3075 25.9059 35.2322 25.9059 35.2322 25.9059H35.0057L34.9297 25.8299L34.4773 23.416C34.4773 23.1142 34.6286 22.9636 34.6286 22.9636C34.4773 22.9636 34.0249 23.0397 33.7984 23.1149C33.8736 23.1149 34.1002 23.2662 34.1755 23.492L34.6286 25.8307C34.6286 25.9067 34.6286 25.9067 34.5526 25.9819C34.4773 25.9819 34.402 26.0572 34.326 26.0572H34.2507L32.5932 24.2462C32.442 24.0197 32.442 23.7939 32.518 23.7939C32.3667 23.8691 31.9896 24.171 31.9143 24.3222C31.9903 24.3222 32.2161 24.3222 32.3674 24.4728L34.0271 26.2838V26.3598L33.8758 26.5103H33.8006L31.5372 25.6808C31.3107 25.6048 31.1601 25.379 31.2354 25.3037C31.0841 25.5303 31.0088 25.9827 30.9336 26.134C31.0088 26.058 31.2354 25.9827 31.4612 26.058L33.7246 26.8122V27.1893L31.3107 27.6416C31.0841 27.6416 30.8583 27.4911 30.8583 27.4151C30.8583 27.6416 30.9343 28.1693 31.0096 28.3206C31.0096 28.2446 31.0848 28.0187 31.3867 27.9435L33.7253 27.4911C33.7253 27.4911 33.8013 27.4911 33.8013 27.5664C33.8013 27.6416 33.8013 27.6416 33.8766 27.7177V27.7929L31.9903 29.3013C31.7638 29.5279 31.5372 29.4526 31.5372 29.3774C31.5372 29.6039 31.9143 29.981 31.9903 30.0563C31.9903 29.981 31.9903 29.7545 32.1416 29.6039L34.1031 28.0955C34.1031 28.0195 34.1031 28.0195 34.1784 28.0955L34.3297 28.246C34.4057 28.246 34.4057 28.246 34.4057 28.3221L33.5755 30.5847C33.4995 30.8112 33.2737 30.9625 33.1984 30.8865C33.3497 30.9625 33.802 31.1883 34.0286 31.1883C33.8773 31.1883 33.802 30.9618 33.8773 30.736L34.7075 28.3973C34.7075 28.3973 34.7075 28.3221 34.7835 28.3221C34.8588 28.3973 34.9341 28.3973 35.0101 28.3973C35.0101 28.3973 35.0854 28.3973 35.0854 28.4726L35.5385 30.8112C35.5385 31.1131 35.3872 31.2636 35.3119 31.3389C35.5385 31.3389 35.9909 31.1883 36.1422 31.1123C36.0669 31.1883 35.8403 30.9618 35.8403 30.8105L35.3879 28.3966V28.3213C35.4632 28.3213 35.5392 28.2453 35.6145 28.2453C35.6861 28.1693 35.6861 28.1693 35.7614 28.2453ZM102.229 13.9855C102.152 13.9102 102.229 13.8349 102.229 13.7589C102.304 13.5324 102.379 13.5324 102.379 13.3065C102.002 13.0047 101.926 12.4011 102.152 12.2505C102.379 12.0239 103.134 12.3258 103.134 12.3258C103.813 11.7981 104.039 11.4203 104.416 11.1945C104.944 11.1945 106 12.1752 106 12.7789C105.849 13.0054 105.471 13.3826 104.869 14.1368C105.095 14.6644 105.095 15.0423 104.717 15.3441C104.642 15.3441 104.491 15.3441 104.34 15.1928C104.416 15.947 105.245 16.3994 105.548 17.0038C105.548 18.2111 106.83 19.7195 105.396 20.7003C105.095 20.8516 104.793 21.0774 104.643 21.3792C104.869 22.5865 105.322 23.8691 105.548 25.1517L104.115 25.227C103.965 25.6801 103.512 26.5096 103.662 26.9627C103.662 26.9627 103.587 26.8867 103.739 26.9627C103.965 27.2645 104.04 29.7545 103.965 29.9803C103.965 30.2821 104.192 30.2821 104.041 30.8105C103.889 30.8858 103.287 31.2629 103.211 31.4894C102.833 31.8665 101.778 31.9425 101.778 31.7913C101.778 31.4142 102.532 30.961 102.684 30.5087C102.833 28.6977 102.684 26.8867 101.702 25.4536C101.326 25.227 101.023 25.8307 100.797 26.1325C101.174 27.2638 101.853 28.4711 101.778 29.7537C101.778 30.1308 102.23 30.6592 102.005 31.1869L100.797 31.7905H96.4204C96.2706 31.564 95.968 31.3374 96.0441 31.0363H99.9656C99.9656 30.885 100.343 30.961 100.721 30.3574C100.721 28.5464 98.8336 25.9059 99.1369 25.0004C99.5133 23.8684 100.042 22.9636 100.645 21.4545L100.947 21.3792C100.268 23.6426 99.2867 24.7746 99.438 25.4536C99.5133 25.8307 99.6646 26.1325 99.8904 26.5849L100.042 27.0372C100.117 27.2638 100.343 27.7915 100.494 27.9427C100.721 27.9427 100.872 27.7915 101.022 27.7162C101.022 27.4143 100.795 27.0372 100.644 26.8107L100.042 27.0372L99.8904 26.5849C100.343 26.5849 100.644 26.283 100.268 26.0565C101.325 25.5288 100.042 25.6794 100.418 25.4536C101.022 25.1517 101.325 24.0197 101.4 23.3407C101.4 23.1895 101.475 23.1142 101.626 23.1142C102.078 24.3215 102.078 25.9059 102.833 27.0372V27.4143C102.757 27.7162 102.833 28.0933 102.984 28.3198C103.663 28.3951 103.588 28.2438 103.436 27.4143C103.287 27.4143 102.984 27.3391 102.833 27.4143V27.0372C102.909 26.962 103.211 27.0372 103.287 26.962C103.058 26.5849 103.058 26.283 103.058 25.9059C103.058 25.6794 103.21 25.227 103.361 26.2078C103.588 26.283 103.965 24.4721 104.04 23.8691C102.606 24.171 104.04 22.5113 102.983 22.436L103.512 21.5305C103.512 21.2287 103.286 21.0021 102.909 21.1534L102.606 20.7756C102.38 20.7003 102.154 20.3232 101.853 20.0966C101.626 20.3232 101.249 20.7756 101.174 21.0774C101.098 21.1534 101.325 21.2279 101.4 21.1534C101.627 20.9268 101.778 21.3792 102.154 21.3039C102.305 21.1534 102.757 21.0774 102.606 20.7756L102.909 21.1534C102.606 21.3039 102.606 21.8316 102.606 22.2094C102.078 23.1902 102.305 21.6818 101.701 21.6818C101.324 21.9083 101.173 21.3047 100.947 21.38L100.645 21.4545C100.645 20.9268 100.721 20.3239 100.645 19.7203C101.098 17.1551 101.626 17.2303 101.701 16.4761C101.701 16.1743 102.833 15.5706 102.758 15.2688C102.833 15.2688 102.985 15.4954 102.985 15.5706C102.909 15.9477 102.154 15.9477 102.231 16.7772C102.684 15.947 103.967 16.023 104.041 15.0422C103.815 14.4386 104.343 14.8157 104.343 14.212C104.193 14.0607 103.74 13.6084 103.664 13.3818C103.588 13.3058 103.89 12.8534 102.833 12.8534C102.758 12.9294 102.684 13.3818 102.532 13.6076C102.457 13.6836 102.306 13.8342 102.381 13.9095C102.381 13.9847 102.532 14.06 102.532 14.3618C102.457 14.6637 102.532 14.815 102.684 14.9655C103.287 15.2673 103.74 14.9655 103.06 15.3433C103.06 15.4186 103.06 15.4946 102.985 15.5706C102.985 15.4946 102.758 15.1928 102.684 15.1168C102.607 15.1168 102.231 14.8902 102.306 14.5891C102.379 14.288 102.379 14.1375 102.229 13.9855ZM81.9333 11.1192C82.0101 11.6476 81.7067 12.0247 81.7067 12.5531C82.2359 13.8357 81.7067 14.8164 81.858 16.0238C81.2544 15.6467 81.1046 14.6659 80.878 13.6098C80.7267 12.7044 80.9533 12.4025 81.0278 11.4218L81.9333 11.1192ZM80.3496 11.4963C80.2743 13.08 80.0485 13.8349 81.1798 16.3248C78.3128 17.5314 75.9734 18.3616 72.5795 19.3424C72.9559 16.9285 75.2953 12.3258 77.2568 11.0432C78.9165 11.4963 80.3496 11.4963 80.3496 11.4963Z" fill="black"/>
<path fill-rule="evenodd" clip-rule="evenodd" d="M72.9551 29.2261C72.2017 29.4526 72.2017 29.905 72.654 30.3581C72.9551 30.5839 73.2577 30.9618 73.2577 31.0371H68.4292C68.4292 31.2636 68.6557 31.4142 68.8063 31.7913H95.5135C95.6647 31.4142 95.2124 30.961 95.0611 30.5087C93.1741 29.8297 93.1741 28.0948 93.0996 26.1325C93.0996 26.0565 92.9483 25.8307 92.9483 25.4536C92.7217 25.1517 91.4406 22.0582 92.0428 19.5682L92.4952 18.7388C92.873 18.2104 92.4199 17.9085 92.7217 17.3049L98.3052 16.2488C98.3805 16.1728 98.3805 15.947 98.2299 15.8717C98.3052 15.8717 98.2299 15.7965 98.2299 15.8717L92.7977 16.8525C93.0988 15.4946 91.8922 15.0415 92.4199 13.9102C93.1734 14.7397 95.2116 16.1728 96.2684 16.3994L96.7968 16.3248C95.4389 15.7212 93.025 14.2873 91.6672 12.4018C91.5159 12.4018 91.3646 12.2505 91.2148 12.1752C91.2148 12.3258 91.5911 12.7789 91.5159 12.8542C91.5159 12.8542 90.6104 13.4578 88.9499 12.7029C88.4223 13.7589 82.5377 16.3994 82.5377 16.3994C82.7643 18.0598 83.5192 19.1159 84.3479 20.0213C84.4247 20.1719 84.1214 19.8701 84.3479 20.0213C85.556 21.0021 86.9884 21.4545 88.5743 21.7563C88.8754 22.6618 90.0067 25.6041 90.082 26.0565C90.2333 26.5089 90.4598 26.5089 90.4598 26.5089C90.6111 26.6601 91.1388 27.6409 91.1388 28.018L91.2901 29.6024C91.3653 29.9795 91.8177 29.6777 91.8937 30.0548L91.6672 31.0356H92.7985C92.1948 30.5079 92.5719 29.6024 91.817 29.2246C91.7417 28.3191 91.6672 27.6402 91.2893 27.2631C90.9882 26.3576 90.0067 23.9437 89.4023 21.7556L89.7802 21.2272C88.1197 21.6803 86.8386 21.0766 85.3294 20.2464C84.1981 19.718 84.8771 20.1704 85.2527 19.9446C87.0644 20.7748 87.9699 20.5483 89.327 20.3977C89.4783 20.6243 89.7802 20.8501 89.7802 21.2272L89.4016 21.7556C89.7794 21.3785 90.0805 21.6043 90.3071 22.6611C90.6096 23.5666 90.9107 24.2448 91.1373 24.9997C91.4399 25.7539 91.6664 26.7354 91.8922 27.2631C91.8922 27.2631 92.1188 27.2631 92.2686 27.5649C92.7977 29.2246 92.9475 29.4512 92.8723 30.2054C93.0236 30.809 93.8538 30.2814 93.7777 31.0356H73.9359C74.237 29.8283 73.5581 28.7722 73.9359 27.6402C73.181 26.4328 71.2954 25.5281 71.5965 23.8677C72.502 22.5851 75.4451 21.3025 74.7661 19.7933C77.4819 18.4354 78.8397 20.6988 81.3304 20.4722C82.2359 20.4722 83.2159 20.321 84.0461 20.0951C82.9893 19.2649 82.0846 17.9831 81.5569 16.851C76.276 19.0384 71.1449 20.7741 65.4861 21.9061L65.0337 21.7548C64.5061 21.8301 55.905 23.7916 56.2069 24.1688C52.9627 24.3953 49.1902 25.7532 48.3607 26.2055C47.9836 26.4321 47.9076 26.5827 48.3607 26.7339C51.8314 27.6394 54.6977 26.9605 60.0547 24.923L59.6775 24.6211C59.3757 24.8477 55.0003 26.3568 53.2646 26.5827C51.4536 26.8092 49.8692 26.7339 49.115 26.5066C48.8884 26.4314 48.8884 26.4314 49.0389 26.3561C52.4344 24.9982 58.9979 23.7909 59.9034 24.923C60.431 25.0742 60.8089 25.3753 61.1107 25.7532C61.4125 26.131 62.0162 25.9797 62.4686 25.9045C63.0715 25.7532 63.1475 25.2255 63.1475 24.6971L62.4686 24.6211C62.1667 24.6211 60.9594 24.7724 60.8089 24.923C60.3565 24.5459 59.9034 24.1687 59.2997 24.0175C60.507 23.4898 62.4686 23.0367 63.5246 22.9614C62.5438 23.6404 62.9969 24.4698 62.4686 24.6211L63.1475 24.6971C63.1475 24.3953 63.1475 24.1687 63.2988 24.0182C63.9777 22.3585 66.8447 22.1319 68.2779 21.7548C68.2779 21.7548 67.5237 22.7356 66.9953 22.9622C66.8447 25.3008 66.0145 27.3383 65.8632 29.677C66.5422 29.677 66.5422 30.4312 66.6934 30.8843C66.4669 31.2614 66.1651 30.8843 65.8632 30.9603C64.8072 30.4319 66.0898 29.5272 65.2596 28.7722C65.7127 26.886 66.3916 24.9997 66.3916 23.0382C66.0898 23.0382 66.0145 23.34 65.8632 23.5658C65.6367 25.4521 65.109 27.1871 64.6566 28.922C64.8072 29.0733 65.185 29.2239 65.185 29.5257C64.5814 29.9028 65.185 30.5817 64.9585 31.0341H58.0931L57.4142 31.7883H67.8255L67.9008 31.4112C66.3924 29.7515 66.92 27.3369 67.6742 25.5266L69.4852 23.1127C70.9943 22.5091 71.8998 20.6988 73.4835 20.0951C73.4835 20.9254 72.502 21.2265 71.9744 21.6796C71.3707 22.9622 69.635 23.1127 69.4092 24.5466C70.0874 25.3008 71.0696 25.8292 71.8998 26.5081C72.7286 27.0365 72.502 28.1678 73.1064 28.6962C73.2584 28.849 73.1064 29.1508 72.9551 29.2261Z" fill="black"/>
<path fill-rule="evenodd" clip-rule="evenodd" d="M84.4992 1.99047C84.1981 2.44284 83.5937 2.74467 83.9716 3.57489C83.2166 4.028 83.4424 4.70694 83.669 5.08404C83.2912 5.46114 83.0653 6.21609 83.5937 6.66847C82.9901 7.3474 83.745 7.95106 83.9716 8.17688C83.669 8.85582 83.9716 9.3842 83.9716 9.3842C83.8948 9.83658 83.0646 10.5915 82.7635 10.8173C82.3111 11.9494 82.4624 14.288 82.537 15.8724C84.6498 14.8164 86.7618 13.8356 88.4223 12.4018C86.9884 11.421 85.8563 9.08237 84.2727 9.23292C84.1214 7.57322 83.4424 4.63093 85.7818 1.61336C86.0829 1.46208 86.5353 1.3868 86.7618 1.23552C85.7818 1.08497 84.4992 1.6879 83.5937 1.16025C83.5937 1.16099 84.0468 1.91519 84.4992 1.99047Z" fill="black"/>
<path fill-rule="evenodd" clip-rule="evenodd" d="M89.5544 1.23554C89.5544 1.31155 89.8555 1.46209 89.8555 1.46209C89.8555 1.46209 90.158 1.38682 90.158 1.31155C90.158 1.23627 90.2333 1.00972 90.158 0.934446C90.0813 0.934446 89.8555 0.859172 89.7057 0.859172C89.7057 0.858434 89.5544 1.161 89.5544 1.23554L89.4031 1.38682L88.3463 0.632615L88.4976 0.481329C88.4976 0.481329 88.95 0.028216 89.1765 0.028216C89.4031 -0.0470571 90.6104 0.0282154 90.9122 0.254773C91.1388 0.48133 91.2901 0.631877 91.5912 1.16026C92.4214 1.76319 93.7793 1.76319 94.6095 2.44212C94.4582 2.66868 94.836 3.04578 94.5342 3.19633C94.3076 3.27234 93.7793 3.12106 93.704 3.27234L93.6287 3.72472L93.3261 3.6487C93.3261 3.6487 93.4774 3.12105 93.3261 3.12105C93.1749 3.04578 92.8738 2.8945 92.7225 2.96977C92.6472 3.04578 92.7225 3.12106 92.7992 3.2716C92.7992 3.42215 93.1756 3.49816 93.4029 3.42215L93.704 3.49816L94.0818 3.57343C93.9305 3.95053 93.8553 4.10108 93.3269 3.95053C93.1756 4.32764 94.0058 4.62947 94.0818 4.78075C94.0051 4.93204 93.8553 5.08258 93.3269 4.78075C93.3269 4.78075 91.1388 6.89357 89.8562 7.49723C88.4983 8.10089 89.7809 7.1954 89.7809 7.1954C90.3846 6.96884 93.0251 4.70548 93.0251 4.47966C92.9483 4.32838 92.7985 4.02728 92.7985 3.80073C92.4207 3.64944 91.6672 3.876 91.3646 4.10182C91.5159 4.78075 92.7225 8.17616 91.817 13.3065L91.6672 13.156C92.4959 8.17616 91.1381 4.17783 91.1381 4.17783C90.3846 4.47966 89.8555 4.25384 89.4791 4.32911C89.3278 7.42195 91.817 7.87507 90.9115 11.9494C88.271 11.497 86.3855 8.25217 84.8764 8.554C84.7996 8.02561 84.2727 7.12086 84.7996 6.81829C84.6498 6.36592 84.4985 5.76226 85.1775 5.38515C84.9509 4.78149 84.8764 4.25384 85.5553 3.80146C85.404 3.42362 85.4786 2.59414 86.3088 2.44286C86.3855 1.76392 86.6866 1.23554 87.2903 1.00972C86.6113 0.707886 86.46 0.0289536 86.46 0.0289536C87.0637 0.406795 87.5914 0.632613 88.4969 0.482067L89.5544 1.23554ZM63.9025 57.669L63.8265 53.4441C63.8265 52.1615 62.997 50.8021 61.8649 50.0479C61.6384 49.9727 61.2613 49.8214 60.9594 49.8214C61.2613 49.8214 61.6384 49.8214 62.0162 49.6701C63.1475 49.1424 64.5061 47.7086 64.5061 45.2194C64.5061 43.3324 63.7519 41.9 62.3933 40.9185C61.1107 40.013 59.6776 39.7872 58.1684 39.7872H46.5505V42.8055H49.191V57.669H46.5505V60.6105H54.8498V57.669H52.2086V51.1047H57.9426C59.9041 51.18 60.6583 52.4626 60.6583 53.5186L60.8849 60.6098H66.5429V57.6682L63.9025 57.669ZM58.5455 48.2384H52.2086V42.8062H58.1692C58.8481 42.8062 59.6023 42.8062 60.206 43.0328C60.9602 43.4106 61.6399 44.2408 61.6399 45.522C61.6391 47.1071 60.206 48.2384 58.5455 48.2384ZM45.4938 68.005C48.2102 68.005 49.4168 69.5142 49.4168 71.3997C49.4168 73.2867 48.1342 74.7191 45.2672 74.7191H43.3057V79.9255H41.5707V68.0057L45.4938 68.005ZM43.3057 73.2114H45.4185C46.7011 73.2114 47.6058 72.531 47.6058 71.3244C47.6058 70.4189 47.0782 69.5142 45.493 69.5142H43.3049L43.3057 73.2114ZM62.9217 79.9255H61.0355L59.527 76.3795H54.3214L52.8882 79.9255H51.002L56.2829 67.929H57.4902L62.9217 79.9255ZM55.0003 74.7951H58.8481L56.8113 70.1163L55.0003 74.7951ZM82.7636 79.9255H81.0286V68.005H82.7636V79.9255ZM95.2131 70.5695C94.0818 69.664 93.0251 69.3629 92.1203 69.3629C90.989 69.3629 90.082 69.8905 90.082 70.7207C90.082 73.0601 95.6655 72.9834 95.6655 76.8319C95.6655 78.6421 94.1564 80 92.0435 80C90.6857 80 89.4791 79.6989 88.4231 78.9447V76.7566C89.4031 77.8879 90.6111 78.4923 91.8937 78.4923C93.3261 78.4923 94.0051 77.6621 94.0051 76.9832C94.0051 74.5693 88.3463 74.266 88.3463 71.0233C88.3463 69.0618 89.9315 67.8537 92.2694 67.8537C93.3261 67.8537 94.2309 68.0803 95.2124 68.6839V70.5695H95.2131ZM75.4458 78.4923C75.2193 78.1898 74.9934 77.8887 74.7669 77.5108C73.8614 76.0017 73.1065 74.9449 71.9751 74.2667C73.333 73.739 74.088 72.683 74.088 71.3251C74.088 69.2883 72.5028 68.0057 69.9383 68.0057H66.8448V79.9255H68.655V74.7191H69.4092C70.314 74.7191 71.0696 75.0216 72.6533 77.4363L74.3138 79.9255H76.3506L75.4458 78.4923ZM69.7871 73.2114H68.655V69.4381H69.7871C71.5228 69.4381 72.201 70.1171 72.201 71.2499C72.2762 72.2299 71.7493 73.2114 69.7871 73.2114Z" fill="black"/>
</svg>
