<svg width="66" height="80" viewBox="0 0 66 80" fill="none" xmlns="http://www.w3.org/2000/svg">
<path d="M48.6706 0.000207038C54.3284 0.000207038 59.987 -0.000621133 65.6448 0.00103525C65.6481 1.27976 65.6382 2.55931 65.6506 3.83887C64.2131 3.90181 62.7433 4.0633 61.4196 4.66705C60.077 5.27246 58.9514 6.37395 58.3721 7.73798C51.4921 23.9688 44.6171 40.2014 37.7445 56.4355C37.6257 56.7022 37.53 56.978 37.3913 57.2356C34.9305 57.2066 32.4688 57.2314 30.008 57.2223C28.922 55.0566 27.8533 52.8818 26.7582 50.721C25.503 54.0967 24.2404 57.4691 22.9852 60.844C31.103 60.8448 39.2209 60.844 47.3387 60.8448C48.8249 60.8647 50.3557 60.8026 51.7463 60.2195C54.0569 59.2878 55.8964 57.4873 57.3933 55.5353C59.2006 53.17 60.5721 50.5073 61.7943 47.8016C63.165 47.7901 64.5349 47.8058 65.9048 47.8033C63.3069 53.3721 60.6959 58.9358 58.075 64.4938C39.3686 64.4946 20.663 64.4938 1.95663 64.4938C2.41216 63.3004 2.8454 62.097 3.33394 60.916C3.36365 60.7943 3.51467 60.8249 3.60627 60.8133C5.94168 60.7959 8.29277 60.7048 10.5844 60.217C11.7769 59.9363 13.0106 59.5619 13.9283 58.7072C14.4135 58.2426 14.5645 57.5643 14.7255 56.9382C16.9346 51.0051 19.1471 45.0728 21.3579 39.1404C16.6854 29.1492 11.9972 19.1637 7.32229 9.17323C6.94599 8.29949 6.4492 7.43404 5.6677 6.86507C4.05025 5.64929 1.94838 5.49524 0.000825252 5.41739C-0.000825214 3.98545 0.000825233 2.55434 0 1.1224C6.56803 1.11992 13.1352 1.12075 19.7033 1.12158C19.7041 2.55352 19.7049 3.98545 19.7024 5.41739C18.8467 5.47205 17.9381 5.45798 17.1632 5.88284C16.7786 6.06504 16.5525 6.52386 16.6516 6.94126C16.7729 7.62452 17.3109 8.11232 17.5832 8.72932C20.3569 14.7246 23.1305 20.7207 25.9123 26.7135C27.3061 22.8019 28.7 18.8912 30.0996 14.9822C30.305 14.4389 30.3777 13.8111 30.1433 13.2645C29.9593 12.833 29.5417 12.5663 29.1299 12.3866C28.3294 12.0553 27.4497 12.0586 26.6014 11.9974C27.0346 10.789 27.4704 9.5807 27.9193 8.379C28.0233 8.31192 28.1677 8.36326 28.2873 8.3467C34.9511 8.35084 41.6157 8.3467 48.2803 8.34919C47.8198 9.56331 47.3618 10.7774 46.9063 11.9932C45.3012 12.0678 43.6466 12.1083 42.1414 12.7378C41.4515 13.0276 40.7987 13.4707 40.391 14.1117C40.108 14.5813 39.9322 15.1056 39.7424 15.6174C36.9581 23.2384 34.1482 30.8494 31.3952 38.482C32.9202 41.9414 34.5096 45.3709 36.0652 48.8162C41.7139 35.4293 47.361 22.0408 53.0163 8.65644C53.3975 7.85144 54.0181 7.11684 54.0668 6.19092C54.1139 5.46626 53.5783 4.84097 52.9577 4.54365C51.62 3.92417 50.1164 3.89353 48.6706 3.84135C48.669 2.56097 48.669 1.28059 48.6706 0.000207038Z" fill="black"/>
<path d="M58.9423 72.0809C60.7256 73.9344 62.4949 75.8003 64.2609 77.6695C64.2585 75.932 64.2684 74.1936 64.2667 72.456C64.572 72.4569 64.8774 72.4536 65.1835 72.4494C65.1844 74.9298 65.1844 77.4111 65.1835 79.8915C63.3986 78.0471 61.64 76.1779 59.8641 74.3244C59.8666 76.0727 59.86 77.8219 59.8591 79.571C59.553 79.5735 59.2476 79.5727 58.9423 79.5727C58.9415 77.0749 58.9406 74.5779 58.9423 72.0809Z" fill="black"/>
<path d="M7.02772 72.3359C8.9926 72.0328 11.0714 73.5766 11.2463 75.5874C11.4114 76.7378 10.9666 77.937 10.1273 78.7296C8.7475 80.0845 6.26602 80.0596 4.92667 78.6567C4.20294 77.9527 3.79032 76.9382 3.83406 75.9253C3.85387 74.1629 5.30545 72.5885 7.02772 72.3359ZM7.02854 73.2469C5.88477 73.4341 4.9539 74.442 4.79381 75.5841C4.57595 76.8819 5.37395 78.2782 6.62253 78.7022C7.71513 79.1163 9.04459 78.7262 9.74603 77.7904C10.653 76.6483 10.4995 74.8056 9.38376 73.8573C8.75658 73.285 7.84965 73.0962 7.02854 73.2469Z" fill="black"/>
<path d="M21.2167 72.7194C22.2235 71.9608 23.8682 72.2747 24.4492 73.4209C24.2066 73.5583 23.9639 73.6967 23.7213 73.8341C23.2848 73.1492 22.221 72.9819 21.6343 73.5633C21.3859 73.7455 21.4131 74.0793 21.4395 74.3534C21.5105 74.7112 21.8901 74.8627 22.1699 75.0309C22.8911 75.4118 23.7576 75.6313 24.2643 76.322C24.8296 77.0931 24.7364 78.2409 24.1199 78.9548C23.4754 79.7375 22.297 79.928 21.3958 79.518C20.7043 79.1751 20.2768 78.4505 20.1382 77.7076C20.4476 77.6339 20.7587 77.566 21.069 77.4964C21.1004 78.1739 21.6244 78.8588 22.3374 78.8712C23.2996 78.9764 24.0646 77.7208 23.5043 76.92C22.906 76.1025 21.7523 76.091 21.0641 75.3845C20.2537 74.7195 20.3354 73.2859 21.2167 72.7194Z" fill="black"/>
<path d="M54.0668 72.331C55.3542 72.1695 56.6845 72.7658 57.475 73.7878C58.6147 75.2189 58.4323 77.5022 57.0797 78.7329C56.3073 79.499 55.1718 79.8145 54.1056 79.701C53.0518 79.6315 52.0656 79.0385 51.4574 78.1805C50.8022 77.2653 50.6322 76.0421 50.9425 74.9663C51.3477 73.5724 52.64 72.5132 54.0668 72.331ZM53.9092 73.2594C52.4898 73.502 51.4748 75.0193 51.724 76.4305C51.8816 77.7879 53.1648 78.8927 54.5223 78.867C55.4483 78.8828 56.3313 78.3561 56.8305 77.5858C57.5889 76.4827 57.3892 74.8528 56.4121 73.9451C55.7726 73.295 54.7848 73.0755 53.9092 73.2594Z" fill="black"/>
<path d="M0.737732 72.451C1.03069 72.4494 1.32365 72.4494 1.61661 72.451C1.61743 74.5538 1.61578 76.6574 1.61743 78.7602C2.34529 78.7618 3.07232 78.7602 3.80017 78.761C3.80182 79.031 3.80182 79.301 3.801 79.5718C2.77936 79.5726 1.75855 79.5735 0.737732 79.5718C0.738557 77.1982 0.738557 74.8246 0.737732 72.451Z" fill="black"/>
<path d="M11.9568 72.4569C12.2671 72.4544 12.5774 72.4552 12.8885 72.456C12.891 73.8573 12.8844 75.2595 12.8918 76.6608C12.9058 77.2769 12.9817 77.9544 13.4158 78.4289C14.1065 79.1089 15.4632 79.012 15.9451 78.1308C16.1886 77.7167 16.2596 77.2264 16.253 76.7527C16.2472 75.3207 16.2472 73.8888 16.248 72.456C16.5583 72.4544 16.8686 72.4552 17.1789 72.456C17.1789 73.9178 17.1822 75.3795 17.178 76.8413C17.1797 77.5047 17.065 78.2062 16.6425 78.7395C15.7339 80.0025 13.6279 80.0746 12.6327 78.8811C12.1598 78.3842 11.965 77.6836 11.9584 77.0094C11.9543 75.4922 11.9576 73.9741 11.9568 72.4569Z" fill="black"/>
<path d="M18.3251 72.4519C18.6304 72.4486 18.9366 72.4494 19.2428 72.451C19.2428 74.8246 19.2436 77.1982 19.2419 79.5726C18.9366 79.5726 18.6304 79.5735 18.3243 79.571C18.3259 77.1982 18.3259 74.8246 18.3251 72.4519Z" fill="black"/>
<path d="M27.5141 72.4577C27.85 72.4486 28.1875 72.4486 28.5242 72.4502C29.229 74.1812 29.923 75.9162 30.6154 77.6521C31.3061 75.922 32.0166 74.2002 32.6916 72.4643C33.0374 72.4353 33.384 72.4552 33.7306 72.4502C32.6999 74.9688 31.6651 77.4856 30.6253 80C29.5673 77.4947 28.5473 74.9729 27.5141 72.4577Z" fill="black"/>
<path d="M34.1506 72.4494C34.4559 72.4535 34.7613 72.4569 35.0674 72.456C35.0782 73.8358 35.0658 75.2164 35.0773 76.5961C35.0988 77.2512 35.1491 77.9941 35.6476 78.4794C36.2228 78.9739 37.1388 79.0045 37.7528 78.5648C38.1101 78.3097 38.3065 77.8856 38.3841 77.4633C38.5062 76.7361 38.4625 75.9965 38.4707 75.2628C38.4757 74.3277 38.4765 73.3927 38.4748 72.4577C38.7686 72.4544 39.0632 72.4552 39.3578 72.456C39.371 73.753 39.3603 75.0491 39.3636 76.346C39.3842 77.1502 39.3587 78.0231 38.8709 78.7022C38.0168 79.9387 36.0511 80.0721 34.9701 79.0675C34.4295 78.5656 34.158 77.8252 34.1539 77.0947C34.1457 75.546 34.1523 73.9981 34.1506 72.4494Z" fill="black"/>
<path d="M40.5099 72.456C40.8284 72.4569 41.1469 72.4535 41.4663 72.4502C41.4663 74.8238 41.4655 77.1974 41.4663 79.5718C41.1453 79.5727 40.8251 79.5727 40.5049 79.5718C40.5016 77.1999 40.5123 74.828 40.5099 72.456Z" fill="black"/>
<path d="M42.039 72.456C44.9001 72.4585 47.7604 72.451 50.6214 72.4519C50.6206 72.7359 50.6206 73.02 50.6214 73.3049C50.0727 73.3074 49.5247 73.3049 48.9767 73.3057C48.9743 75.3944 48.9759 77.4831 48.9759 79.5718C48.6566 79.5726 48.338 79.5726 48.0186 79.5718C48.017 77.4831 48.0244 75.3944 48.0153 73.3057C46.8922 73.3074 45.7691 73.3049 44.6459 73.3066C44.6443 75.3953 44.6459 77.4831 44.6451 79.5718C44.3521 79.5726 44.0592 79.5726 43.767 79.5718C43.7662 77.4831 43.7679 75.3953 43.7662 73.3066C43.1902 73.3049 42.615 73.3074 42.039 73.3049C42.0382 73.0217 42.0382 72.7384 42.039 72.456Z" fill="black"/>
</svg>
